<svg xmlns="http://www.w3.org/2000/svg" viewBox="0 0 160 44" preserveAspectRatio="none"><defs><linearGradient id="b" x1="0" y1="0" x2="0" y2="1"><stop offset="0" stop-color="#15181d"/><stop offset="1" stop-color="#0e1013"/></linearGradient></defs><rect x="4" y="2" width="152" height="40" rx="3" fill="url(#b)" stroke="#3b424c" stroke-opacity=".6"/><rect x="6.0" y="37.0" width="148.0" height="5.0" fill="#6c7686" rx="1.0"/><rect x="6.0" y="37.0" width="148.0" height="1.5" fill="#9aa3ae"/><rect x="25.6" y="12.2" width="108.8" height="24.8" fill="#1c2129" rx="3.0" stroke="#4c5563" stroke-width="0.8"/><rect x="30.6" y="21.0" width="11.0" height="9.0" fill="#050608" rx="1.0" stroke="#8a94a3" stroke-width="0.8"/><rect x="33.6" y="27.0" width="5.0" height="3.0" fill="#8a94a3" opacity="0.6"/><rect x="31.6" y="18.6" width="3.0" height="1.6" fill="#3a4150"/><rect x="51.6" y="18.6" width="3.0" height="12.0" fill="#101419" rx="1.0"/><rect x="56.6" y="18.6" width="3.0" height="12.0" fill="#101419" rx="1.0"/><rect x="61.6" y="18.6" width="3.0" height="12.0" fill="#101419" rx="1.0"/><rect x="66.6" y="18.6" width="3.0" height="12.0" fill="#101419" rx="1.0"/><rect x="71.6" y="18.6" width="3.0" height="12.0" fill="#101419" rx="1.0"/><rect x="76.6" y="18.6" width="3.0" height="12.0" fill="#101419" rx="1.0"/><rect x="81.6" y="18.6" width="3.0" height="12.0" fill="#101419" rx="1.0"/><rect x="86.6" y="18.6" width="3.0" height="12.0" fill="#101419" rx="1.0"/><rect x="91.6" y="18.6" width="3.0" height="12.0" fill="#101419" rx="1.0"/><rect x="96.6" y="18.6" width="3.0" height="12.0" fill="#101419" rx="1.0"/><rect x="101.6" y="18.6" width="3.0" height="12.0" fill="#101419" rx="1.0"/><rect x="106.6" y="18.6" width="3.0" height="12.0" fill="#101419" rx="1.0"/><rect x="111.6" y="18.6" width="3.0" height="12.0" fill="#101419" rx="1.0"/></svg>
