<svg xmlns="http://www.w3.org/2000/svg" viewBox="0 0 160 88" preserveAspectRatio="none"><defs><linearGradient id="b" x1="0" y1="0" x2="0" y2="1"><stop offset="0" stop-color="#4a5361"/><stop offset="1" stop-color="#262c35"/></linearGradient></defs><rect x="4" y="2" width="152" height="84" rx="3" fill="url(#b)" stroke="#5b6574" stroke-opacity=".6"/><rect x="12.0" y="6.0" width="31.0" height="32.0" fill="#15191f" rx="2.0" stroke="#6c7686" stroke-width="0.8"/><rect x="15.0" y="10.0" width="25.0" height="17.6" fill="#232932"/><rect x="16.0" y="12.0" width="2.0" height="14.4" fill="#11151a"/><rect x="20.0" y="12.0" width="2.0" height="14.4" fill="#11151a"/><rect x="24.0" y="12.0" width="2.0" height="14.4" fill="#11151a"/><rect x="28.0" y="12.0" width="2.0" height="14.4" fill="#11151a"/><rect x="32.0" y="12.0" width="2.0" height="14.4" fill="#11151a"/><rect x="16.0" y="31.0" width="4.0" height="3.0" fill="#34d399"/><rect x="22.0" y="31.0" width="4.0" height="3.0" fill="#38bdf8" opacity="0.8"/><rect x="46.0" y="6.0" width="31.0" height="32.0" fill="#15191f" rx="2.0" stroke="#6c7686" stroke-width="0.8"/><rect x="49.0" y="10.0" width="25.0" height="17.6" fill="#232932"/><rect x="50.0" y="12.0" width="2.0" height="14.4" fill="#11151a"/><rect x="54.0" y="12.0" width="2.0" height="14.4" fill="#11151a"/><rect x="58.0" y="12.0" width="2.0" height="14.4" fill="#11151a"/><rect x="62.0" y="12.0" width="2.0" height="14.4" fill="#11151a"/><rect x="66.0" y="12.0" width="2.0" height="14.4" fill="#11151a"/><rect x="50.0" y="31.0" width="4.0" height="3.0" fill="#34d399"/><rect x="56.0" y="31.0" width="4.0" height="3.0" fill="#38bdf8" opacity="0.8"/><rect x="84.0" y="9.0" width="3.0" height="26.0" fill="#101419" rx="1.0"/><rect x="89.0" y="9.0" width="3.0" height="26.0" fill="#101419" rx="1.0"/><rect x="94.0" y="9.0" width="3.0" height="26.0" fill="#101419" rx="1.0"/><rect x="99.0" y="9.0" width="3.0" height="26.0" fill="#101419" rx="1.0"/><rect x="104.0" y="9.0" width="3.0" height="26.0" fill="#101419" rx="1.0"/><rect x="12.0" y="50.0" width="31.0" height="32.0" fill="#15191f" rx="2.0" stroke="#6c7686" stroke-width="0.8"/><rect x="15.0" y="54.0" width="25.0" height="17.6" fill="#232932"/><rect x="16.0" y="56.0" width="2.0" height="14.4" fill="#11151a"/><rect x="20.0" y="56.0" width="2.0" height="14.4" fill="#11151a"/><rect x="24.0" y="56.0" width="2.0" height="14.4" fill="#11151a"/><rect x="28.0" y="56.0" width="2.0" height="14.4" fill="#11151a"/><rect x="32.0" y="56.0" width="2.0" height="14.4" fill="#11151a"/><rect x="16.0" y="75.0" width="4.0" height="3.0" fill="#34d399"/><rect x="22.0" y="75.0" width="4.0" height="3.0" fill="#38bdf8" opacity="0.8"/><rect x="46.0" y="50.0" width="31.0" height="32.0" fill="#15191f" rx="2.0" stroke="#6c7686" stroke-width="0.8"/><rect x="49.0" y="54.0" width="25.0" height="17.6" fill="#232932"/><rect x="50.0" y="56.0" width="2.0" height="14.4" fill="#11151a"/><rect x="54.0" y="56.0" width="2.0" height="14.4" fill="#11151a"/><rect x="58.0" y="56.0" width="2.0" height="14.4" fill="#11151a"/><rect x="62.0" y="56.0" width="2.0" height="14.4" fill="#11151a"/><rect x="66.0" y="56.0" width="2.0" height="14.4" fill="#11151a"/><rect x="50.0" y="75.0" width="4.0" height="3.0" fill="#34d399"/><rect x="56.0" y="75.0" width="4.0" height="3.0" fill="#38bdf8" opacity="0.8"/><rect x="84.0" y="53.0" width="3.0" height="26.0" fill="#101419" rx="1.0"/><rect x="89.0" y="53.0" width="3.0" height="26.0" fill="#101419" rx="1.0"/><rect x="94.0" y="53.0" width="3.0" height="26.0" fill="#101419" rx="1.0"/><rect x="99.0" y="53.0" width="3.0" height="26.0" fill="#101419" rx="1.0"/><rect x="104.0" y="53.0" width="3.0" height="26.0" fill="#101419" rx="1.0"/><rect x="118.0" y="12.0" width="26.0" height="20.0" fill="#1b2027" rx="3.0" stroke="#6c7686" stroke-width="0.8"/><circle cx="131.0" cy="22.0" r="5.0" fill="none" stroke="#38bdf8" stroke-width="1.6"/><rect x="118.0" y="70.0" width="26.0" height="10.0" fill="#0d1116" rx="2.0"/><rect x="121.0" y="73.0" width="20.0" height="4.0" fill="#38bdf8" opacity="0.7"/></svg>
