<svg xmlns="http://www.w3.org/2000/svg" viewBox="0 0 480 44" preserveAspectRatio="none"><defs><linearGradient id="b" x1="0" y1="0" x2="0" y2="1"><stop offset="0" stop-color="#3a414b"/><stop offset="1" stop-color="#1b1f25"/></linearGradient></defs><rect x="0" y="0" width="16" height="44" fill="#2b323c"/><rect x="5" y="8" width="6" height="5" fill="#0b0e12" rx="2"/><rect x="5" y="31" width="6" height="5" fill="#0b0e12" rx="2"/><rect x="464" y="0" width="16" height="44" fill="#2b323c"/><rect x="469" y="8" width="6" height="5" fill="#0b0e12" rx="2"/><rect x="469" y="31" width="6" height="5" fill="#0b0e12" rx="2"/><rect x="16" y="0" width="448" height="44" fill="url(#b)"/><rect x="16.5" y=".5" width="447" height="43" fill="none" stroke="#5b6574" stroke-opacity=".5"/><path d="M24 9h24l-3 9h-18z" fill="#0b3b8c" stroke="#6c7686" stroke-width="1"/><rect x="26" y="24" width="8" height="9" fill="#0d1a2c" stroke="#6c7686" stroke-width="0.8"/><rect x="38" y="24" width="8" height="9" fill="#0d1a2c" stroke="#6c7686" stroke-width="0.8"/><path d="M64 9h24l-3 9h-18z" fill="#0b3b8c" stroke="#6c7686" stroke-width="1"/><rect x="66" y="24" width="8" height="9" fill="#0d1a2c" stroke="#6c7686" stroke-width="0.8"/><rect x="78" y="24" width="8" height="9" fill="#0d1a2c" stroke="#6c7686" stroke-width="0.8"/><path d="M104 9h24l-3 9h-18z" fill="#0b3b8c" stroke="#6c7686" stroke-width="1"/><rect x="106" y="24" width="8" height="9" fill="#0d1a2c" stroke="#6c7686" stroke-width="0.8"/><rect x="118" y="24" width="8" height="9" fill="#0d1a2c" stroke="#6c7686" stroke-width="0.8"/><path d="M144 9h24l-3 9h-18z" fill="#0b3b8c" stroke="#6c7686" stroke-width="1"/><rect x="146" y="24" width="8" height="9" fill="#0d1a2c" stroke="#6c7686" stroke-width="0.8"/><rect x="158" y="24" width="8" height="9" fill="#0d1a2c" stroke="#6c7686" stroke-width="0.8"/><path d="M184 9h24l-3 9h-18z" fill="#0b3b8c" stroke="#6c7686" stroke-width="1"/><rect x="186" y="24" width="8" height="9" fill="#0d1a2c" stroke="#6c7686" stroke-width="0.8"/><rect x="198" y="24" width="8" height="9" fill="#0d1a2c" stroke="#6c7686" stroke-width="0.8"/><path d="M224 9h24l-3 9h-18z" fill="#0b3b8c" stroke="#6c7686" stroke-width="1"/><rect x="226" y="24" width="8" height="9" fill="#0d1a2c" stroke="#6c7686" stroke-width="0.8"/><rect x="238" y="24" width="8" height="9" fill="#0d1a2c" stroke="#6c7686" stroke-width="0.8"/><path d="M264 9h24l-3 9h-18z" fill="#0b3b8c" stroke="#6c7686" stroke-width="1"/><rect x="266" y="24" width="8" height="9" fill="#0d1a2c" stroke="#6c7686" stroke-width="0.8"/><rect x="278" y="24" width="8" height="9" fill="#0d1a2c" stroke="#6c7686" stroke-width="0.8"/><path d="M304 9h24l-3 9h-18z" fill="#0b3b8c" stroke="#6c7686" stroke-width="1"/><rect x="306" y="24" width="8" height="9" fill="#0d1a2c" stroke="#6c7686" stroke-width="0.8"/><rect x="318" y="24" width="8" height="9" fill="#0d1a2c" stroke="#6c7686" stroke-width="0.8"/><rect x="432" y="14" width="22" height="16" fill="#050608" rx="2" stroke="#a4acb8" stroke-width="0.8"/><rect x="437" y="19" width="2" height="6" fill="#a4acb8"/><rect x="442" y="19" width="2" height="6" fill="#a4acb8"/><rect x="447" y="19" width="2" height="6" fill="#a4acb8"/></svg>
