<svg xmlns="http://www.w3.org/2000/svg" viewBox="0 0 320 44" preserveAspectRatio="none"><defs><linearGradient id="b" x1="0" y1="0" x2="0" y2="1"><stop offset="0" stop-color="#3a414b"/><stop offset="1" stop-color="#1b1f25"/></linearGradient></defs><rect x="4" y="2" width="312" height="40" rx="3" fill="url(#b)" stroke="#5b6574" stroke-opacity=".6"/><rect x="282.0" y="11.0" width="22.0" height="16.0" fill="#050608" rx="2.0" stroke="#a4acb8" stroke-width="1"/><rect x="287.0" y="16.0" width="2.0" height="6.0" fill="#a4acb8"/><rect x="292.0" y="16.0" width="2.0" height="6.0" fill="#a4acb8"/><rect x="297.0" y="16.0" width="2.0" height="6.0" fill="#a4acb8"/><rect x="263.0" y="18.4" width="11.0" height="9.0" fill="#050608" rx="1.0" stroke="#8a94a3" stroke-width="0.8"/><rect x="266.0" y="24.4" width="5.0" height="3.0" fill="#8a94a3" opacity="0.6"/><rect x="264.0" y="16.0" width="3.0" height="1.6" fill="#3a4150"/><path d="M12.0 9.0h24.0l-3.0 9.0h-18.0z" fill="#0b3b8c" stroke="#6c7686" stroke-width="1"/><rect x="14.0" y="22.0" width="8.0" height="8.0" fill="#0d1a2c" stroke="#6c7686" stroke-width="1"/><rect x="26.0" y="22.0" width="8.0" height="8.0" fill="#0d1a2c" stroke="#6c7686" stroke-width="1"/><rect x="34.0" y="32.0" width="2.0" height="2.0" fill="#3a4150"/><path d="M42.0 9.0h24.0l-3.0 9.0h-18.0z" fill="#0b3b8c" stroke="#6c7686" stroke-width="1"/><rect x="44.0" y="22.0" width="8.0" height="8.0" fill="#0d1a2c" stroke="#6c7686" stroke-width="1"/><rect x="56.0" y="22.0" width="8.0" height="8.0" fill="#0d1a2c" stroke="#6c7686" stroke-width="1"/><rect x="64.0" y="32.0" width="2.0" height="2.0" fill="#3a4150"/><path d="M72.0 9.0h24.0l-3.0 9.0h-18.0z" fill="#0b3b8c" stroke="#6c7686" stroke-width="1"/><rect x="74.0" y="22.0" width="8.0" height="8.0" fill="#0d1a2c" stroke="#6c7686" stroke-width="1"/><rect x="86.0" y="22.0" width="8.0" height="8.0" fill="#0d1a2c" stroke="#6c7686" stroke-width="1"/><rect x="94.0" y="32.0" width="2.0" height="2.0" fill="#3a4150"/><path d="M102.0 9.0h24.0l-3.0 9.0h-18.0z" fill="#0b3b8c" stroke="#6c7686" stroke-width="1"/><rect x="104.0" y="22.0" width="8.0" height="8.0" fill="#0d1a2c" stroke="#6c7686" stroke-width="1"/><rect x="116.0" y="22.0" width="8.0" height="8.0" fill="#0d1a2c" stroke="#6c7686" stroke-width="1"/><rect x="124.0" y="32.0" width="2.0" height="2.0" fill="#3a4150"/><path d="M132.0 9.0h24.0l-3.0 9.0h-18.0z" fill="#0b3b8c" stroke="#6c7686" stroke-width="1"/><rect x="134.0" y="22.0" width="8.0" height="8.0" fill="#0d1a2c" stroke="#6c7686" stroke-width="1"/><rect x="146.0" y="22.0" width="8.0" height="8.0" fill="#0d1a2c" stroke="#6c7686" stroke-width="1"/><rect x="154.0" y="32.0" width="2.0" height="2.0" fill="#3a4150"/><path d="M162.0 9.0h24.0l-3.0 9.0h-18.0z" fill="#0b3b8c" stroke="#6c7686" stroke-width="1"/><rect x="164.0" y="22.0" width="8.0" height="8.0" fill="#0d1a2c" stroke="#6c7686" stroke-width="1"/><rect x="176.0" y="22.0" width="8.0" height="8.0" fill="#0d1a2c" stroke="#6c7686" stroke-width="1"/><rect x="184.0" y="32.0" width="2.0" height="2.0" fill="#3a4150"/><path d="M192.0 9.0h24.0l-3.0 9.0h-18.0z" fill="#0b3b8c" stroke="#6c7686" stroke-width="1"/><rect x="194.0" y="22.0" width="8.0" height="8.0" fill="#0d1a2c" stroke="#6c7686" stroke-width="1"/><rect x="206.0" y="22.0" width="8.0" height="8.0" fill="#0d1a2c" stroke="#6c7686" stroke-width="1"/><rect x="214.0" y="32.0" width="2.0" height="2.0" fill="#3a4150"/><path d="M222.0 9.0h24.0l-3.0 9.0h-18.0z" fill="#0b3b8c" stroke="#6c7686" stroke-width="1"/><rect x="224.0" y="22.0" width="8.0" height="8.0" fill="#0d1a2c" stroke="#6c7686" stroke-width="1"/><rect x="236.0" y="22.0" width="8.0" height="8.0" fill="#0d1a2c" stroke="#6c7686" stroke-width="1"/><rect x="244.0" y="32.0" width="2.0" height="2.0" fill="#3a4150"/></svg>
