<svg xmlns="http://www.w3.org/2000/svg" viewBox="0 0 320 44" preserveAspectRatio="none"><defs><linearGradient id="b" x1="0" y1="0" x2="0" y2="1"><stop offset="0" stop-color="#2c3138"/><stop offset="1" stop-color="#15181d"/></linearGradient></defs><rect x="4" y="2" width="312" height="40" rx="3" fill="url(#b)" stroke="#8a94a3" stroke-opacity=".6"/><rect x="33" y="4" width="102" height="36" fill="#0f1215" rx="2"/><rect x="37" y="8" width="12" height="5" fill="#e5e7eb" opacity="0.85"/><rect x="37" y="17" width="12" height="16" fill="#050608" rx="1" stroke="#a4acb8" stroke-width="0.8"/><rect x="40.5" y="30" width="5" height="3" fill="#a4acb8" opacity="0.6"/><rect x="53" y="8" width="12" height="5" fill="#e5e7eb" opacity="0.85"/><rect x="53" y="17" width="12" height="16" fill="#050608" rx="1" stroke="#a4acb8" stroke-width="0.8"/><rect x="56.5" y="30" width="5" height="3" fill="#a4acb8" opacity="0.6"/><rect x="69" y="8" width="12" height="5" fill="#e5e7eb" opacity="0.85"/><rect x="69" y="17" width="12" height="16" fill="#050608" rx="1" stroke="#a4acb8" stroke-width="0.8"/><rect x="72.5" y="30" width="5" height="3" fill="#a4acb8" opacity="0.6"/><rect x="85" y="8" width="12" height="5" fill="#e5e7eb" opacity="0.85"/><rect x="85" y="17" width="12" height="16" fill="#050608" rx="1" stroke="#a4acb8" stroke-width="0.8"/><rect x="88.5" y="30" width="5" height="3" fill="#a4acb8" opacity="0.6"/><rect x="101" y="8" width="12" height="5" fill="#e5e7eb" opacity="0.85"/><rect x="101" y="17" width="12" height="16" fill="#050608" rx="1" stroke="#a4acb8" stroke-width="0.8"/><rect x="104.5" y="30" width="5" height="3" fill="#a4acb8" opacity="0.6"/><rect x="117" y="8" width="12" height="5" fill="#e5e7eb" opacity="0.85"/><rect x="117" y="17" width="12" height="16" fill="#050608" rx="1" stroke="#a4acb8" stroke-width="0.8"/><rect x="120.5" y="30" width="5" height="3" fill="#a4acb8" opacity="0.6"/><rect x="181" y="4" width="102" height="36" fill="#0f1215" rx="2"/><rect x="185" y="8" width="12" height="5" fill="#e5e7eb" opacity="0.85"/><rect x="185" y="17" width="12" height="16" fill="#050608" rx="1" stroke="#a4acb8" stroke-width="0.8"/><rect x="188.5" y="30" width="5" height="3" fill="#a4acb8" opacity="0.6"/><rect x="201" y="8" width="12" height="5" fill="#e5e7eb" opacity="0.85"/><rect x="201" y="17" width="12" height="16" fill="#050608" rx="1" stroke="#a4acb8" stroke-width="0.8"/><rect x="204.5" y="30" width="5" height="3" fill="#a4acb8" opacity="0.6"/><rect x="217" y="8" width="12" height="5" fill="#e5e7eb" opacity="0.85"/><rect x="217" y="17" width="12" height="16" fill="#050608" rx="1" stroke="#a4acb8" stroke-width="0.8"/><rect x="220.5" y="30" width="5" height="3" fill="#a4acb8" opacity="0.6"/><rect x="233" y="8" width="12" height="5" fill="#e5e7eb" opacity="0.85"/><rect x="233" y="17" width="12" height="16" fill="#050608" rx="1" stroke="#a4acb8" stroke-width="0.8"/><rect x="236.5" y="30" width="5" height="3" fill="#a4acb8" opacity="0.6"/><rect x="249" y="8" width="12" height="5" fill="#e5e7eb" opacity="0.85"/><rect x="249" y="17" width="12" height="16" fill="#050608" rx="1" stroke="#a4acb8" stroke-width="0.8"/><rect x="252.5" y="30" width="5" height="3" fill="#a4acb8" opacity="0.6"/><rect x="265" y="8" width="12" height="5" fill="#e5e7eb" opacity="0.85"/><rect x="265" y="17" width="12" height="16" fill="#050608" rx="1" stroke="#a4acb8" stroke-width="0.8"/><rect x="268.5" y="30" width="5" height="3" fill="#a4acb8" opacity="0.6"/></svg>
