<svg xmlns="http://www.w3.org/2000/svg" viewBox="0 0 160 44" preserveAspectRatio="none"><defs><linearGradient id="b" x1="0" y1="0" x2="0" y2="1"><stop offset="0" stop-color="#2c3138"/><stop offset="1" stop-color="#15181d"/></linearGradient></defs><rect x="4" y="2" width="152" height="40" rx="3" fill="url(#b)" stroke="#8a94a3" stroke-opacity=".6"/><rect x="27.0" y="6.0" width="102.0" height="22.0" fill="#0f1215" rx="2.0"/><rect x="31.0" y="9.0" width="12.0" height="16.0" fill="#1f252d" rx="1.0" stroke="#6c7686" stroke-width="0.8"/><rect x="34.0" y="12.0" width="6.0" height="10.0" fill="#2f6fd6" opacity="0.8"/><rect x="47.0" y="9.0" width="12.0" height="16.0" fill="#1f252d" rx="1.0" stroke="#6c7686" stroke-width="0.8"/><rect x="50.0" y="12.0" width="6.0" height="10.0" fill="#2f6fd6" opacity="0.8"/><rect x="63.0" y="9.0" width="12.0" height="16.0" fill="#1f252d" rx="1.0" stroke="#6c7686" stroke-width="0.8"/><rect x="66.0" y="12.0" width="6.0" height="10.0" fill="#2f6fd6" opacity="0.8"/><rect x="79.0" y="9.0" width="12.0" height="16.0" fill="#1f252d" rx="1.0" stroke="#6c7686" stroke-width="0.8"/><rect x="82.0" y="12.0" width="6.0" height="10.0" fill="#2f6fd6" opacity="0.8"/><rect x="95.0" y="9.0" width="12.0" height="16.0" fill="#1f252d" rx="1.0" stroke="#6c7686" stroke-width="0.8"/><rect x="98.0" y="12.0" width="6.0" height="10.0" fill="#2f6fd6" opacity="0.8"/><rect x="111.0" y="9.0" width="12.0" height="16.0" fill="#1f252d" rx="1.0" stroke="#6c7686" stroke-width="0.8"/><rect x="114.0" y="12.0" width="6.0" height="10.0" fill="#2f6fd6" opacity="0.8"/><rect x="27.0" y="32.0" width="102.0" height="4.0" fill="#9aa3ae" rx="2.0"/></svg>
