<svg xmlns="http://www.w3.org/2000/svg" viewBox="0 0 320 44" preserveAspectRatio="none"><defs><linearGradient id="b" x1="0" y1="0" x2="0" y2="1"><stop offset="0" stop-color="#2a2d33"/><stop offset="1" stop-color="#121418"/></linearGradient></defs><rect x="4" y="2" width="312" height="40" rx="3" fill="url(#b)" stroke="#8a94a3" stroke-opacity=".6"/><rect x="12" y="8" width="46" height="28" fill="#0b0d10" rx="2" stroke="#6c7686" stroke-width="0.8"/><rect x="17" y="14" width="36" height="16" fill="#061a12"/><rect x="21" y="21" width="7" height="2" fill="#34d399" opacity="0.8"/><rect x="31" y="21" width="7" height="2" fill="#34d399" opacity="0.8"/><rect x="41" y="21" width="7" height="2" fill="#34d399" opacity="0.8"/><rect x="66" y="10" width="20" height="24" fill="#1f2226" rx="2" stroke="#8a94a3" stroke-width="0.8"/><rect x="71" y="14" width="10" height="9" fill="#d03b3b"/><path d="M98.83333333333333 10h26.0v14.399999999999999l-4.0 5.6000000000000005h-18.0l-4.0-5.6000000000000005z" fill="#050608" stroke="#a4acb8" stroke-width="1"/><rect x="104.833" y="16" width="2.6" height="7" fill="#a4acb8"/><rect x="110.333" y="16" width="2.6" height="7" fill="#a4acb8"/><rect x="115.833" y="16" width="2.6" height="7" fill="#a4acb8"/><rect x="108.833" y="35" width="6" height="2" fill="#34d399"/><path d="M134.5 10h26.0v14.399999999999999l-4.0 5.6000000000000005h-18.0l-4.0-5.6000000000000005z" fill="#050608" stroke="#a4acb8" stroke-width="1"/><rect x="140.5" y="16" width="2.6" height="7" fill="#a4acb8"/><rect x="146" y="16" width="2.6" height="7" fill="#a4acb8"/><rect x="151.5" y="16" width="2.6" height="7" fill="#a4acb8"/><rect x="144.5" y="35" width="6" height="2" fill="#34d399"/><path d="M170.16666666666666 10h26.0v14.399999999999999l-4.0 5.6000000000000005h-18.0l-4.0-5.6000000000000005z" fill="#050608" stroke="#a4acb8" stroke-width="1"/><rect x="176.167" y="16" width="2.6" height="7" fill="#a4acb8"/><rect x="181.667" y="16" width="2.6" height="7" fill="#a4acb8"/><rect x="187.167" y="16" width="2.6" height="7" fill="#a4acb8"/><rect x="180.167" y="35" width="6" height="2" fill="#34d399"/><path d="M205.83333333333334 10h26.0v14.399999999999999l-4.0 5.6000000000000005h-18.0l-4.0-5.6000000000000005z" fill="#050608" stroke="#a4acb8" stroke-width="1"/><rect x="211.833" y="16" width="2.6" height="7" fill="#a4acb8"/><rect x="217.333" y="16" width="2.6" height="7" fill="#a4acb8"/><rect x="222.833" y="16" width="2.6" height="7" fill="#a4acb8"/><rect x="215.833" y="35" width="6" height="2" fill="#34d399"/><path d="M241.5 10h26.0v14.399999999999999l-4.0 5.6000000000000005h-18.0l-4.0-5.6000000000000005z" fill="#050608" stroke="#a4acb8" stroke-width="1"/><rect x="247.5" y="16" width="2.6" height="7" fill="#a4acb8"/><rect x="253" y="16" width="2.6" height="7" fill="#a4acb8"/><rect x="258.5" y="16" width="2.6" height="7" fill="#a4acb8"/><rect x="251.5" y="35" width="6" height="2" fill="#34d399"/><path d="M277.16666666666663 10h26.0v14.399999999999999l-4.0 5.6000000000000005h-18.0l-4.0-5.6000000000000005z" fill="#050608" stroke="#a4acb8" stroke-width="1"/><rect x="283.167" y="16" width="2.6" height="7" fill="#a4acb8"/><rect x="288.667" y="16" width="2.6" height="7" fill="#a4acb8"/><rect x="294.167" y="16" width="2.6" height="7" fill="#a4acb8"/><rect x="287.167" y="35" width="6" height="2" fill="#34d399"/></svg>
