<svg xmlns="http://www.w3.org/2000/svg" viewBox="0 0 480 44" preserveAspectRatio="none"><defs><linearGradient id="b" x1="0" y1="0" x2="0" y2="1"><stop offset="0" stop-color="#2a2f36"/><stop offset="1" stop-color="#191c21"/></linearGradient></defs><rect x="16" y="0" width="448" height="44" fill="url(#b)"/><rect x="16.5" y=".5" width="447" height="43" fill="none" stroke="#5b6574" stroke-opacity=".5"/><rect x="0" y="0" width="16" height="44" fill="#22262c"/><rect x="5" y="8" width="6" height="5" rx="2" fill="#0b0e12"/><rect x="5" y="31" width="6" height="5" rx="2" fill="#0b0e12"/><rect x="464" y="0" width="16" height="44" fill="#22262c"/><rect x="469" y="8" width="6" height="5" rx="2" fill="#0b0e12"/><rect x="469" y="31" width="6" height="5" rx="2" fill="#0b0e12"/><rect x="20" y="7" width="440" height="2" fill="#11141a" opacity=".9"/><rect x="20" y="15" width="440" height="2" fill="#11141a" opacity=".9"/><rect x="20" y="23" width="440" height="2" fill="#11141a" opacity=".9"/><rect x="20" y="31" width="440" height="2" fill="#11141a" opacity=".9"/><rect x="20" y="9" width="440" height="1" fill="#3b424c" opacity=".7"/><rect x="20" y="17" width="440" height="1" fill="#3b424c" opacity=".7"/><rect x="20" y="25" width="440" height="1" fill="#3b424c" opacity=".7"/><rect x="20" y="33" width="440" height="1" fill="#3b424c" opacity=".7"/></svg>
