<svg xmlns="http://www.w3.org/2000/svg" viewBox="0 0 160 88" preserveAspectRatio="none"><defs><linearGradient id="b" x1="0" y1="0" x2="0" y2="1"><stop offset="0" stop-color="#3b4a63"/><stop offset="1" stop-color="#1d2533"/></linearGradient></defs><rect x="4" y="2" width="152" height="84" rx="3" fill="url(#b)" stroke="#7c90b3" stroke-opacity=".6"/><rect x="12" y="6" width="128" height="23" fill="#141a24" rx="2" stroke="#7c90b3" stroke-width="0.8"/><rect x="18" y="11" width="3" height="13" fill="#0a0e14"/><rect x="24" y="11" width="3" height="13" fill="#0a0e14"/><rect x="30" y="11" width="3" height="13" fill="#0a0e14"/><rect x="36" y="11" width="3" height="13" fill="#0a0e14"/><rect x="42" y="11" width="3" height="13" fill="#0a0e14"/><rect x="48" y="11" width="3" height="13" fill="#0a0e14"/><rect x="54" y="11" width="3" height="13" fill="#0a0e14"/><rect x="60" y="11" width="3" height="13" fill="#0a0e14"/><rect x="66" y="11" width="3" height="13" fill="#0a0e14"/><rect x="72" y="11" width="3" height="13" fill="#0a0e14"/><rect x="78" y="11" width="3" height="13" fill="#0a0e14"/><rect x="84" y="11" width="3" height="13" fill="#0a0e14"/><rect x="90" y="11" width="3" height="13" fill="#0a0e14"/><rect x="96" y="11" width="3" height="13" fill="#0a0e14"/><rect x="102" y="11" width="3" height="13" fill="#0a0e14"/><rect x="108" y="11" width="3" height="13" fill="#0a0e14"/><rect x="132" y="11" width="4" height="4" fill="#34d399"/><rect x="132" y="19" width="4" height="4" fill="#38bdf8"/><rect x="12" y="32" width="128" height="23" fill="#141a24" rx="2" stroke="#7c90b3" stroke-width="0.8"/><rect x="18" y="37" width="3" height="13" fill="#0a0e14"/><rect x="24" y="37" width="3" height="13" fill="#0a0e14"/><rect x="30" y="37" width="3" height="13" fill="#0a0e14"/><rect x="36" y="37" width="3" height="13" fill="#0a0e14"/><rect x="42" y="37" width="3" height="13" fill="#0a0e14"/><rect x="48" y="37" width="3" height="13" fill="#0a0e14"/><rect x="54" y="37" width="3" height="13" fill="#0a0e14"/><rect x="60" y="37" width="3" height="13" fill="#0a0e14"/><rect x="66" y="37" width="3" height="13" fill="#0a0e14"/><rect x="72" y="37" width="3" height="13" fill="#0a0e14"/><rect x="78" y="37" width="3" height="13" fill="#0a0e14"/><rect x="84" y="37" width="3" height="13" fill="#0a0e14"/><rect x="90" y="37" width="3" height="13" fill="#0a0e14"/><rect x="96" y="37" width="3" height="13" fill="#0a0e14"/><rect x="102" y="37" width="3" height="13" fill="#0a0e14"/><rect x="108" y="37" width="3" height="13" fill="#0a0e14"/><rect x="132" y="37" width="4" height="4" fill="#34d399"/><rect x="132" y="45" width="4" height="4" fill="#38bdf8"/><rect x="12" y="58" width="128" height="23" fill="#141a24" rx="2" stroke="#7c90b3" stroke-width="0.8"/><rect x="18" y="63" width="3" height="13" fill="#0a0e14"/><rect x="24" y="63" width="3" height="13" fill="#0a0e14"/><rect x="30" y="63" width="3" height="13" fill="#0a0e14"/><rect x="36" y="63" width="3" height="13" fill="#0a0e14"/><rect x="42" y="63" width="3" height="13" fill="#0a0e14"/><rect x="48" y="63" width="3" height="13" fill="#0a0e14"/><rect x="54" y="63" width="3" height="13" fill="#0a0e14"/><rect x="60" y="63" width="3" height="13" fill="#0a0e14"/><rect x="66" y="63" width="3" height="13" fill="#0a0e14"/><rect x="72" y="63" width="3" height="13" fill="#0a0e14"/><rect x="78" y="63" width="3" height="13" fill="#0a0e14"/><rect x="84" y="63" width="3" height="13" fill="#0a0e14"/><rect x="90" y="63" width="3" height="13" fill="#0a0e14"/><rect x="96" y="63" width="3" height="13" fill="#0a0e14"/><rect x="102" y="63" width="3" height="13" fill="#0a0e14"/><rect x="108" y="63" width="3" height="13" fill="#0a0e14"/><rect x="132" y="63" width="4" height="4" fill="#34d399"/><rect x="132" y="71" width="4" height="4" fill="#38bdf8"/></svg>
