<svg xmlns="http://www.w3.org/2000/svg" viewBox="0 0 320 44" preserveAspectRatio="none"><defs><linearGradient id="b" x1="0" y1="0" x2="0" y2="1"><stop offset="0" stop-color="#2f5a49"/><stop offset="1" stop-color="#17332a"/></linearGradient></defs><rect x="4" y="2" width="312" height="40" rx="3" fill="url(#b)" stroke="#6fb296" stroke-opacity=".6"/><rect x="238.0" y="5.0" width="70.0" height="34.0" fill="#1b2027" rx="2.0" stroke="#6c7686" stroke-width="0.8"/><rect x="242.0" y="14.0" width="22.0" height="16.0" fill="#050608" rx="2.0" stroke="#a4acb8" stroke-width="1"/><rect x="247.0" y="19.0" width="2.0" height="6.0" fill="#a4acb8"/><rect x="252.0" y="19.0" width="2.0" height="6.0" fill="#a4acb8"/><rect x="257.0" y="19.0" width="2.0" height="6.0" fill="#a4acb8"/><rect x="268.0" y="10.0" width="3.0" height="24.0" fill="#0b0e12" rx="1.0"/><rect x="273.0" y="10.0" width="3.0" height="24.0" fill="#0b0e12" rx="1.0"/><rect x="278.0" y="10.0" width="3.0" height="24.0" fill="#0b0e12" rx="1.0"/><rect x="283.0" y="10.0" width="3.0" height="24.0" fill="#0b0e12" rx="1.0"/><rect x="288.0" y="10.0" width="3.0" height="24.0" fill="#0b0e12" rx="1.0"/><rect x="293.0" y="10.0" width="3.0" height="24.0" fill="#0b0e12" rx="1.0"/><rect x="300.0" y="10.0" width="4.0" height="4.0" fill="#fbbf24"/><circle cx="51.0" cy="22.0" r="15.0" fill="#07090b" stroke="#6c7686" stroke-width="1"/><circle cx="51.0" cy="22.0" r="5.2" fill="none" stroke="#4c5563" stroke-width="0.8"/><circle cx="51.0" cy="22.0" r="9.8" fill="none" stroke="#4c5563" stroke-width="0.8"/><path d="M36.0 22.0h30.0M51.0 7.0v30.0" fill="none" stroke="#4c5563" stroke-width="0.8"/><circle cx="51.0" cy="22.0" r="2.7" fill="#6c7686"/><circle cx="91.0" cy="22.0" r="15.0" fill="#07090b" stroke="#6c7686" stroke-width="1"/><circle cx="91.0" cy="22.0" r="5.2" fill="none" stroke="#4c5563" stroke-width="0.8"/><circle cx="91.0" cy="22.0" r="9.8" fill="none" stroke="#4c5563" stroke-width="0.8"/><path d="M76.0 22.0h30.0M91.0 7.0v30.0" fill="none" stroke="#4c5563" stroke-width="0.8"/><circle cx="91.0" cy="22.0" r="2.7" fill="#6c7686"/><circle cx="131.0" cy="22.0" r="15.0" fill="#07090b" stroke="#6c7686" stroke-width="1"/><circle cx="131.0" cy="22.0" r="5.2" fill="none" stroke="#4c5563" stroke-width="0.8"/><circle cx="131.0" cy="22.0" r="9.8" fill="none" stroke="#4c5563" stroke-width="0.8"/><path d="M116.0 22.0h30.0M131.0 7.0v30.0" fill="none" stroke="#4c5563" stroke-width="0.8"/><circle cx="131.0" cy="22.0" r="2.7" fill="#6c7686"/><circle cx="171.0" cy="22.0" r="15.0" fill="#07090b" stroke="#6c7686" stroke-width="1"/><circle cx="171.0" cy="22.0" r="5.2" fill="none" stroke="#4c5563" stroke-width="0.8"/><circle cx="171.0" cy="22.0" r="9.8" fill="none" stroke="#4c5563" stroke-width="0.8"/><path d="M156.0 22.0h30.0M171.0 7.0v30.0" fill="none" stroke="#4c5563" stroke-width="0.8"/><circle cx="171.0" cy="22.0" r="2.7" fill="#6c7686"/><rect x="12.0" y="10.4" width="11.0" height="9.0" fill="#050608" rx="1.0" stroke="#38bdf8" stroke-width="0.8"/><rect x="15.0" y="16.4" width="5.0" height="3.0" fill="#38bdf8" opacity="0.6"/><rect x="13.0" y="8.0" width="3.0" height="1.6" fill="#3a4150"/><rect x="12.0" y="26.4" width="11.0" height="9.0" fill="#050608" rx="1.0" stroke="#8a94a3" stroke-width="0.8"/><rect x="15.0" y="32.4" width="5.0" height="3.0" fill="#8a94a3" opacity="0.6"/><rect x="13.0" y="24.0" width="3.0" height="1.6" fill="#3a4150"/></svg>
