<svg xmlns="http://www.w3.org/2000/svg" viewBox="0 0 480 44" preserveAspectRatio="none"><defs><linearGradient id="b" x1="0" y1="0" x2="0" y2="1"><stop offset="0" stop-color="#2f5a49"/><stop offset="1" stop-color="#17332a"/></linearGradient></defs><rect x="0.0" y="0.0" width="16.0" height="44.0" fill="#243a31"/><rect x="5.0" y="8.0" width="6.0" height="5.0" fill="#0b0e12" rx="2.0"/><rect x="5.0" y="31.0" width="6.0" height="5.0" fill="#0b0e12" rx="2.0"/><rect x="464.0" y="0.0" width="16.0" height="44.0" fill="#243a31"/><rect x="469.0" y="8.0" width="6.0" height="5.0" fill="#0b0e12" rx="2.0"/><rect x="469.0" y="31.0" width="6.0" height="5.0" fill="#0b0e12" rx="2.0"/><rect x="16" y="0" width="448" height="44" fill="url(#b)"/><rect x="16.5" y=".5" width="447" height="43" fill="none" stroke="#6fb296" stroke-opacity=".5"/><rect x="24.0" y="8.0" width="16.0" height="28.0" fill="#10261e" rx="2.0"/><rect x="28.0" y="12.0" width="8.0" height="3.0" fill="#34d399"/><rect x="28.0" y="18.0" width="8.0" height="3.0" fill="#34d399"/><rect x="28.0" y="24.0" width="8.0" height="3.0" fill="#fbbf24"/><rect x="28.0" y="30.0" width="8.0" height="3.0" fill="#34d399"/><rect x="444.0" y="15.0" width="10.0" height="14.0" fill="#050608" rx="1.0" stroke="#38bdf8" stroke-width="0.8"/><rect x="46.0" y="18.4" width="11.0" height="9.0" fill="#050608" rx="1.0" stroke="#8a94a3" stroke-width="0.8"/><rect x="49.0" y="24.4" width="5.0" height="3.0" fill="#8a94a3" opacity="0.6"/><rect x="47.0" y="16.0" width="3.0" height="1.6" fill="#3a4150"/><rect x="59.0" y="18.4" width="11.0" height="9.0" fill="#050608" rx="1.0" stroke="#8a94a3" stroke-width="0.8"/><rect x="62.0" y="24.4" width="5.0" height="3.0" fill="#8a94a3" opacity="0.6"/><rect x="60.0" y="16.0" width="3.0" height="1.6" fill="#3a4150"/><rect x="72.0" y="18.4" width="11.0" height="9.0" fill="#050608" rx="1.0" stroke="#8a94a3" stroke-width="0.8"/><rect x="75.0" y="24.4" width="5.0" height="3.0" fill="#8a94a3" opacity="0.6"/><rect x="73.0" y="16.0" width="3.0" height="1.6" fill="#3a4150"/><rect x="85.0" y="18.4" width="11.0" height="9.0" fill="#050608" rx="1.0" stroke="#8a94a3" stroke-width="0.8"/><rect x="88.0" y="24.4" width="5.0" height="3.0" fill="#8a94a3" opacity="0.6"/><rect x="86.0" y="16.0" width="3.0" height="1.6" fill="#3a4150"/><rect x="98.0" y="18.4" width="11.0" height="9.0" fill="#050608" rx="1.0" stroke="#8a94a3" stroke-width="0.8"/><rect x="101.0" y="24.4" width="5.0" height="3.0" fill="#8a94a3" opacity="0.6"/><rect x="99.0" y="16.0" width="3.0" height="1.6" fill="#3a4150"/><rect x="111.0" y="18.4" width="11.0" height="9.0" fill="#050608" rx="1.0" stroke="#8a94a3" stroke-width="0.8"/><rect x="114.0" y="24.4" width="5.0" height="3.0" fill="#8a94a3" opacity="0.6"/><rect x="112.0" y="16.0" width="3.0" height="1.6" fill="#3a4150"/><rect x="124.0" y="18.4" width="11.0" height="9.0" fill="#050608" rx="1.0" stroke="#8a94a3" stroke-width="0.8"/><rect x="127.0" y="24.4" width="5.0" height="3.0" fill="#8a94a3" opacity="0.6"/><rect x="125.0" y="16.0" width="3.0" height="1.6" fill="#3a4150"/><rect x="137.0" y="18.4" width="11.0" height="9.0" fill="#050608" rx="1.0" stroke="#8a94a3" stroke-width="0.8"/><rect x="140.0" y="24.4" width="5.0" height="3.0" fill="#8a94a3" opacity="0.6"/><rect x="138.0" y="16.0" width="3.0" height="1.6" fill="#3a4150"/><rect x="150.0" y="18.4" width="11.0" height="9.0" fill="#050608" rx="1.0" stroke="#8a94a3" stroke-width="0.8"/><rect x="153.0" y="24.4" width="5.0" height="3.0" fill="#8a94a3" opacity="0.6"/><rect x="151.0" y="16.0" width="3.0" height="1.6" fill="#3a4150"/><rect x="163.0" y="18.4" width="11.0" height="9.0" fill="#050608" rx="1.0" stroke="#8a94a3" stroke-width="0.8"/><rect x="166.0" y="24.4" width="5.0" height="3.0" fill="#8a94a3" opacity="0.6"/><rect x="164.0" y="16.0" width="3.0" height="1.6" fill="#3a4150"/><rect x="176.0" y="18.4" width="11.0" height="9.0" fill="#050608" rx="1.0" stroke="#8a94a3" stroke-width="0.8"/><rect x="179.0" y="24.4" width="5.0" height="3.0" fill="#8a94a3" opacity="0.6"/><rect x="177.0" y="16.0" width="3.0" height="1.6" fill="#3a4150"/><rect x="189.0" y="18.4" width="11.0" height="9.0" fill="#050608" rx="1.0" stroke="#8a94a3" stroke-width="0.8"/><rect x="192.0" y="24.4" width="5.0" height="3.0" fill="#8a94a3" opacity="0.6"/><rect x="190.0" y="16.0" width="3.0" height="1.6" fill="#3a4150"/><rect x="202.0" y="18.4" width="11.0" height="9.0" fill="#050608" rx="1.0" stroke="#8a94a3" stroke-width="0.8"/><rect x="205.0" y="24.4" width="5.0" height="3.0" fill="#8a94a3" opacity="0.6"/><rect x="203.0" y="16.0" width="3.0" height="1.6" fill="#3a4150"/><rect x="215.0" y="18.4" width="11.0" height="9.0" fill="#050608" rx="1.0" stroke="#8a94a3" stroke-width="0.8"/><rect x="218.0" y="24.4" width="5.0" height="3.0" fill="#8a94a3" opacity="0.6"/><rect x="216.0" y="16.0" width="3.0" height="1.6" fill="#3a4150"/><rect x="228.0" y="18.4" width="11.0" height="9.0" fill="#050608" rx="1.0" stroke="#8a94a3" stroke-width="0.8"/><rect x="231.0" y="24.4" width="5.0" height="3.0" fill="#8a94a3" opacity="0.6"/><rect x="229.0" y="16.0" width="3.0" height="1.6" fill="#3a4150"/><rect x="241.0" y="18.4" width="11.0" height="9.0" fill="#050608" rx="1.0" stroke="#8a94a3" stroke-width="0.8"/><rect x="244.0" y="24.4" width="5.0" height="3.0" fill="#8a94a3" opacity="0.6"/><rect x="242.0" y="16.0" width="3.0" height="1.6" fill="#3a4150"/><rect x="254.0" y="18.4" width="11.0" height="9.0" fill="#050608" rx="1.0" stroke="#8a94a3" stroke-width="0.8"/><rect x="257.0" y="24.4" width="5.0" height="3.0" fill="#8a94a3" opacity="0.6"/><rect x="255.0" y="16.0" width="3.0" height="1.6" fill="#3a4150"/><rect x="267.0" y="18.4" width="11.0" height="9.0" fill="#050608" rx="1.0" stroke="#8a94a3" stroke-width="0.8"/><rect x="270.0" y="24.4" width="5.0" height="3.0" fill="#8a94a3" opacity="0.6"/><rect x="268.0" y="16.0" width="3.0" height="1.6" fill="#3a4150"/><rect x="280.0" y="18.4" width="11.0" height="9.0" fill="#050608" rx="1.0" stroke="#8a94a3" stroke-width="0.8"/><rect x="283.0" y="24.4" width="5.0" height="3.0" fill="#8a94a3" opacity="0.6"/><rect x="281.0" y="16.0" width="3.0" height="1.6" fill="#3a4150"/><rect x="293.0" y="18.4" width="11.0" height="9.0" fill="#050608" rx="1.0" stroke="#8a94a3" stroke-width="0.8"/><rect x="296.0" y="24.4" width="5.0" height="3.0" fill="#8a94a3" opacity="0.6"/><rect x="294.0" y="16.0" width="3.0" height="1.6" fill="#3a4150"/><rect x="306.0" y="18.4" width="11.0" height="9.0" fill="#050608" rx="1.0" stroke="#8a94a3" stroke-width="0.8"/><rect x="309.0" y="24.4" width="5.0" height="3.0" fill="#8a94a3" opacity="0.6"/><rect x="307.0" y="16.0" width="3.0" height="1.6" fill="#3a4150"/><rect x="319.0" y="18.4" width="11.0" height="9.0" fill="#050608" rx="1.0" stroke="#8a94a3" stroke-width="0.8"/><rect x="322.0" y="24.4" width="5.0" height="3.0" fill="#8a94a3" opacity="0.6"/><rect x="320.0" y="16.0" width="3.0" height="1.6" fill="#3a4150"/><rect x="332.0" y="18.4" width="11.0" height="9.0" fill="#050608" rx="1.0" stroke="#8a94a3" stroke-width="0.8"/><rect x="335.0" y="24.4" width="5.0" height="3.0" fill="#8a94a3" opacity="0.6"/><rect x="333.0" y="16.0" width="3.0" height="1.6" fill="#3a4150"/><rect x="345.0" y="18.4" width="11.0" height="9.0" fill="#050608" rx="1.0" stroke="#8a94a3" stroke-width="0.8"/><rect x="348.0" y="24.4" width="5.0" height="3.0" fill="#8a94a3" opacity="0.6"/><rect x="346.0" y="16.0" width="3.0" height="1.6" fill="#3a4150"/></svg>
