<svg xmlns="http://www.w3.org/2000/svg" viewBox="0 0 480 44" preserveAspectRatio="none"><defs><linearGradient id="b" x1="0" y1="0" x2="0" y2="1"><stop offset="0" stop-color="#15181d"/><stop offset="1" stop-color="#0e1013"/></linearGradient></defs><rect x="0.0" y="0.0" width="16.0" height="44.0" fill="#22262c"/><rect x="5.0" y="8.0" width="6.0" height="5.0" fill="#0b0e12" rx="2.0"/><rect x="5.0" y="31.0" width="6.0" height="5.0" fill="#0b0e12" rx="2.0"/><rect x="464.0" y="0.0" width="16.0" height="44.0" fill="#22262c"/><rect x="469.0" y="8.0" width="6.0" height="5.0" fill="#0b0e12" rx="2.0"/><rect x="469.0" y="31.0" width="6.0" height="5.0" fill="#0b0e12" rx="2.0"/><rect x="16" y="0" width="448" height="44" fill="url(#b)"/><rect x="16.5" y=".5" width="447" height="43" fill="none" stroke="#3b424c" stroke-opacity=".5"/><rect x="18.0" y="37.0" width="444.0" height="5.0" fill="#6c7686" rx="1.0"/><rect x="18.0" y="37.0" width="444.0" height="1.5" fill="#9aa3ae"/><rect x="153.6" y="12.2" width="172.8" height="24.8" fill="#1c2129" rx="3.0" stroke="#4c5563" stroke-width="0.8"/><rect x="158.6" y="21.0" width="11.0" height="9.0" fill="#050608" rx="1.0" stroke="#8a94a3" stroke-width="0.8"/><rect x="161.6" y="27.0" width="5.0" height="3.0" fill="#8a94a3" opacity="0.6"/><rect x="159.6" y="18.6" width="3.0" height="1.6" fill="#3a4150"/><rect x="179.6" y="18.6" width="3.0" height="12.0" fill="#101419" rx="1.0"/><rect x="184.6" y="18.6" width="3.0" height="12.0" fill="#101419" rx="1.0"/><rect x="189.6" y="18.6" width="3.0" height="12.0" fill="#101419" rx="1.0"/><rect x="194.6" y="18.6" width="3.0" height="12.0" fill="#101419" rx="1.0"/><rect x="199.6" y="18.6" width="3.0" height="12.0" fill="#101419" rx="1.0"/><rect x="204.6" y="18.6" width="3.0" height="12.0" fill="#101419" rx="1.0"/><rect x="209.6" y="18.6" width="3.0" height="12.0" fill="#101419" rx="1.0"/><rect x="214.6" y="18.6" width="3.0" height="12.0" fill="#101419" rx="1.0"/><rect x="219.6" y="18.6" width="3.0" height="12.0" fill="#101419" rx="1.0"/><rect x="224.6" y="18.6" width="3.0" height="12.0" fill="#101419" rx="1.0"/><rect x="229.6" y="18.6" width="3.0" height="12.0" fill="#101419" rx="1.0"/><rect x="234.6" y="18.6" width="3.0" height="12.0" fill="#101419" rx="1.0"/><rect x="239.6" y="18.6" width="3.0" height="12.0" fill="#101419" rx="1.0"/><rect x="244.6" y="18.6" width="3.0" height="12.0" fill="#101419" rx="1.0"/><rect x="249.6" y="18.6" width="3.0" height="12.0" fill="#101419" rx="1.0"/><rect x="254.6" y="18.6" width="3.0" height="12.0" fill="#101419" rx="1.0"/><rect x="259.6" y="18.6" width="3.0" height="12.0" fill="#101419" rx="1.0"/><rect x="264.6" y="18.6" width="3.0" height="12.0" fill="#101419" rx="1.0"/><rect x="269.6" y="18.6" width="3.0" height="12.0" fill="#101419" rx="1.0"/><rect x="274.6" y="18.6" width="3.0" height="12.0" fill="#101419" rx="1.0"/><rect x="279.6" y="18.6" width="3.0" height="12.0" fill="#101419" rx="1.0"/><rect x="284.6" y="18.6" width="3.0" height="12.0" fill="#101419" rx="1.0"/><rect x="289.6" y="18.6" width="3.0" height="12.0" fill="#101419" rx="1.0"/><rect x="294.6" y="18.6" width="3.0" height="12.0" fill="#101419" rx="1.0"/><rect x="299.6" y="18.6" width="3.0" height="12.0" fill="#101419" rx="1.0"/><rect x="304.6" y="18.6" width="3.0" height="12.0" fill="#101419" rx="1.0"/></svg>
